<svg xmlns="http://www.w3.org/2000/svg" width="39.531" height="36.031" viewBox="0 0 39.531 36.031">
  <defs>
    <style>
      .cls-1 {
        fill: #50c5da;
        fill-rule: evenodd;
      }
    </style>
  </defs>
  <path class="cls-1" d="M191.534,22.2c0,3.171-1.478,5.41-3.075,7.6-0.356.492,0.118,0.819,0.532,0.437a7.625,7.625,0,0,1,5.856-2.241c3.549,0,6.152,2.842,6.152,8.307,0,5.9-3.9,10.275-8.281,10.275-4.259,0-8.341-3.608-9.524-5.958-0.415-.819-0.769-1.366-1.184-1.366-0.295,0-.413.328-0.413,0.765,0,4.92,2.247,9.526,4.84,10.829,0.083,0.042.773,0.63-.5,0.883-1.047.21-7.96,0.714-10.215-.6-0.291-.17.008-0.536,0.3-0.6,3.6-.814,4.337-8.214,4.337-11.055,0-.437-0.119-0.766-0.473-0.766a1.177,1.177,0,0,0-.888.821c-1.36,2.568-4.5,5.956-9.228,5.956s-8.282-5.028-8.282-9.837,2.84-8.744,6.863-8.744c2.365,0,4.851,1.421,6.387,2.3,0.416,0.218.711-.219,0.3-0.493-2.544-1.694-3.372-3.661-3.372-6.612,0-1.968,2.13-6.121,9.7-6.121S191.534,18.7,191.534,22.2Z" transform="translate(-161.469 -15.969)"/>
</svg>
